<svg width="230" height="192" viewBox="0 0 230 192" fill="none" xmlns="http://www.w3.org/2000/svg">
<path d="M66.424 0.479994L115.384 130.656H115.96L165.208 0.479994H222.232V23.808L212.728 24.672C206.968 25.248 204.184 28.608 204.376 34.752L211.576 166.656L229.432 167.52V192H160.024V168.672L170.392 167.808C175.576 167.424 178.072 164.928 177.88 160.32L172.408 58.656H171.832L127.48 173.568H100.12L56.344 59.808H55.768L50.008 166.656L68.728 167.52V192H0.76V168.672L11.128 167.808C15.544 167.424 17.944 164.832 18.328 160.032L26.104 26.112L8.536 24.96V0.479994H66.424Z" fill="#E0E1DD"/>
</svg>
